<svg width="665" height="586" viewBox="0 0 665 586" fill="none" xmlns="http://www.w3.org/2000/svg">
<path d="M325.403 585.378C288.333 582.508 244.243 583.528 202.113 574.938C95.3029 553.188 30.3229 484.798 0.892881 381.188C-2.33712 369.848 3.37287 362.448 15.1629 362.288C32.0629 362.048 48.9729 362.578 65.8629 362.058C73.0729 361.838 75.5229 364.978 77.1929 371.298C98.0529 449.878 153.653 489.148 230.083 500.298C266.813 505.668 304.723 503.998 342.083 503.678C376.983 503.378 412.603 504.578 446.583 498.158C519.073 484.458 570.983 444.248 591.503 369.958C592.393 366.748 597.643 362.718 601.023 362.568C617.483 361.798 634.023 362.008 650.503 362.278C661.613 362.468 666.883 369.768 664.383 380.598C641.383 480.288 553.583 562.668 450.873 577.418C411.653 583.028 371.573 582.638 325.403 585.378Z" fill="#F5F5F5"/>
<path d="M332.653 133.697C352.103 113.457 367.993 96.5275 384.323 80.0275C407.523 56.6075 431.043 33.4975 454.423 10.2575C468.313 -3.55251 475.543 -3.4525 489.573 10.7675C491.573 12.7675 493.443 14.8575 495.503 16.7675C515.503 35.4575 516.113 39.6575 495.003 61.7675C471.393 86.4475 446.313 109.768 422.063 133.768C397.233 158.408 372.663 183.308 347.903 208.008C337.523 218.368 330.783 218.488 320.323 208.128C270.063 158.321 219.866 108.447 169.733 58.5075C166.257 55.1658 163.081 51.5251 160.243 47.6275C155.533 40.9275 155.483 34.2175 161.593 28.0475C168.403 21.1875 175.013 14.1875 181.873 7.37749C191.733 -2.35251 201.003 -2.3425 211.073 7.6375C248.493 44.6975 285.826 81.8442 323.073 119.077C326.403 122.437 328.403 127.187 332.653 133.697Z" fill="#F5F5F5"/>
<path d="M254.073 288.038C253.993 330.248 224.713 355.808 184.633 348.648C162.513 344.708 146.833 327.648 141.903 302.118C135.443 268.738 150.453 237.488 177.343 228.318C218.283 214.348 254.153 242.278 254.073 288.038Z" fill="#F5F5F5"/>
<path d="M526.903 288.048C526.773 330.568 497.693 356.048 457.653 348.608C455.296 348.156 452.976 347.528 450.713 346.728C422.523 336.968 407.713 305.288 415.263 270.978C422.263 239.198 446.033 222.308 478.993 225.718C506.683 228.588 526.273 252.598 526.893 284.428C526.913 285.638 526.893 286.848 526.903 288.048Z" fill="#F5F5F5"/>
</svg>
