<svg width="409" height="360" viewBox="0 0 409 360" fill="none" xmlns="http://www.w3.org/2000/svg">
<path d="M200.119 360C177.321 358.235 150.206 358.862 124.297 353.58C58.6101 340.204 18.6482 298.145 0.549111 234.426C-1.4373 227.452 2.07427 222.901 9.32498 222.802C19.7183 222.655 30.1177 222.981 40.5049 222.661C44.9389 222.526 46.4456 224.457 47.4727 228.343C60.3013 276.669 94.4946 300.82 141.498 307.677C164.087 310.979 187.401 309.952 210.377 309.755C231.84 309.571 253.746 310.309 274.643 306.361C319.223 297.935 351.147 273.207 363.767 227.519C364.314 225.545 367.543 223.067 369.622 222.975C379.744 222.501 389.916 222.63 400.051 222.796C406.884 222.913 410.125 227.402 408.587 234.063C394.443 295.371 340.447 346.034 277.281 355.105C253.161 358.555 228.513 358.315 200.119 360Z" fill="#F5F5F5"/>
<path d="M204.577 82.2223C216.539 69.775 226.311 59.3632 236.354 49.2159C250.622 34.8129 265.086 20.6005 279.465 6.30823C288.007 -2.18475 292.453 -2.12325 301.081 6.62188C302.311 7.85185 303.461 9.13718 304.728 10.3118C317.028 21.8059 317.403 24.3889 304.421 37.9863C289.901 53.1642 274.477 67.5057 259.564 82.2654C244.293 97.4187 229.183 112.732 213.956 127.922C207.572 134.293 203.427 134.367 196.995 127.996C166.085 97.3654 135.215 66.6939 104.384 35.9814C102.246 33.9263 100.293 31.6873 98.5474 29.2903C95.6508 25.1699 95.6201 21.0433 99.3777 17.2489C103.566 13.0301 107.631 8.72513 111.85 4.53707C117.913 -1.44676 123.614 -1.44061 129.807 4.69697C152.82 27.4884 175.78 50.3332 198.686 73.2312C200.734 75.2976 201.964 78.2188 204.577 82.2223Z" fill="#363C45"/>
<path d="M156.252 177.14C156.203 203.098 138.196 218.817 113.547 214.414C99.9435 211.991 90.3005 201.499 87.2686 185.799C83.2958 165.27 92.5267 146.052 109.064 140.412C134.241 131.821 156.301 148.998 156.252 177.14Z" fill="#F5F5F5"/>
<path d="M324.039 177.146C323.959 203.295 306.075 218.965 281.451 214.389C280.001 214.112 278.575 213.725 277.183 213.233C259.846 207.231 250.738 187.748 255.382 166.648C259.687 147.104 274.305 136.716 294.575 138.814C311.604 140.579 323.651 155.344 324.033 174.919C324.045 175.664 324.033 176.408 324.039 177.146Z" fill="#F5F5F5"/>
</svg>
